<mxfile host="65bd71144e">
    <diagram id="C5RBs43oDa-KdzZeNtuy" name="Page-1">
        <mxGraphModel dx="2827" dy="1183" grid="1" gridSize="10" guides="1" tooltips="1" connect="1" arrows="1" fold="1" page="1" pageScale="1" pageWidth="827" pageHeight="1169" background="#C6E2E3" math="0" shadow="0">
            <root>
                <mxCell id="WIyWlLk6GJQsqaUBKTNV-0"/>
                <mxCell id="WIyWlLk6GJQsqaUBKTNV-1" parent="WIyWlLk6GJQsqaUBKTNV-0"/>
                <mxCell id="11" value="" style="endArrow=classic;html=1;rounded=0;edgeStyle=entityRelationEdgeStyle;fontColor=#000000;strokeColor=#696969;strokeWidth=2;elbow=vertical;exitX=0;exitY=0;exitDx=0;exitDy=0;dashed=1;dashPattern=1 2;jumpStyle=sharp;" parent="WIyWlLk6GJQsqaUBKTNV-1" source="20" target="7UvQwR4lHRqra6OR5dTo-194" edge="1">
                    <mxGeometry width="50" height="50" relative="1" as="geometry">
                        <mxPoint x="390.00000000000045" y="1566" as="sourcePoint"/>
                        <mxPoint x="323.9999999999998" y="1848" as="targetPoint"/>
                    </mxGeometry>
                </mxCell>
                <mxCell id="13" style="edgeStyle=entityRelationEdgeStyle;rounded=0;orthogonalLoop=1;jettySize=auto;html=1;fontSize=25;fontColor=#000000;strokeColor=#696969;strokeWidth=2;entryX=0;entryY=0.25;entryDx=0;entryDy=0;dashed=1;dashPattern=1 2;" parent="WIyWlLk6GJQsqaUBKTNV-1" source="7UvQwR4lHRqra6OR5dTo-186" target="8" edge="1">
                    <mxGeometry relative="1" as="geometry">
                        <mxPoint x="430" y="1797.9999999999995" as="targetPoint"/>
                        <mxPoint x="300" y="1660" as="sourcePoint"/>
                    </mxGeometry>
                </mxCell>
                <mxCell id="7UvQwR4lHRqra6OR5dTo-18" value="Login and Registration" style="shape=table;startSize=30;container=1;collapsible=1;childLayout=tableLayout;fixedRows=1;rowLines=0;fontStyle=1;align=center;resizeLast=1;fontColor=#FFFFFF;strokeColor=#696969;strokeWidth=3;" parent="WIyWlLk6GJQsqaUBKTNV-1" vertex="1">
                    <mxGeometry x="-620" y="50" width="1230" height="600" as="geometry"/>
                </mxCell>
                <mxCell id="7UvQwR4lHRqra6OR5dTo-22" value="" style="shape=tableRow;horizontal=0;startSize=0;swimlaneHead=0;swimlaneBody=0;fillColor=none;collapsible=0;dropTarget=0;points=[[0,0.5],[1,0.5]];portConstraint=eastwest;top=0;left=0;right=0;bottom=1;fontColor=#000000;strokeColor=#696969;strokeWidth=3;" parent="7UvQwR4lHRqra6OR5dTo-18" vertex="1">
                    <mxGeometry y="30" width="1230" height="502" as="geometry"/>
                </mxCell>
                <mxCell id="7UvQwR4lHRqra6OR5dTo-23" value="" style="shape=partialRectangle;connectable=0;fillColor=none;top=0;left=0;bottom=0;right=0;fontStyle=1;overflow=hidden;fontColor=#000000;strokeColor=#696969;strokeWidth=3;" parent="7UvQwR4lHRqra6OR5dTo-22" vertex="1">
                    <mxGeometry width="270" height="502" as="geometry">
                        <mxRectangle width="270" height="502" as="alternateBounds"/>
                    </mxGeometry>
                </mxCell>
                <mxCell id="7UvQwR4lHRqra6OR5dTo-24" value="" style="shape=partialRectangle;connectable=0;fillColor=none;top=0;left=0;bottom=0;right=0;align=left;spacingLeft=6;fontStyle=5;overflow=hidden;fontColor=#000000;strokeColor=#696969;strokeWidth=3;" parent="7UvQwR4lHRqra6OR5dTo-22" vertex="1">
                    <mxGeometry x="270" width="700" height="502" as="geometry">
                        <mxRectangle width="700" height="502" as="alternateBounds"/>
                    </mxGeometry>
                </mxCell>
                <mxCell id="7UvQwR4lHRqra6OR5dTo-51" style="shape=partialRectangle;connectable=0;fillColor=none;top=0;left=0;bottom=0;right=0;align=left;spacingLeft=6;fontStyle=5;overflow=hidden;fontColor=#000000;strokeColor=#696969;strokeWidth=3;" parent="7UvQwR4lHRqra6OR5dTo-22" vertex="1">
                    <mxGeometry x="970" width="260" height="502" as="geometry">
                        <mxRectangle width="260" height="502" as="alternateBounds"/>
                    </mxGeometry>
                </mxCell>
                <mxCell id="7UvQwR4lHRqra6OR5dTo-47" style="shape=tableRow;horizontal=0;startSize=0;swimlaneHead=0;swimlaneBody=0;fillColor=none;collapsible=0;dropTarget=0;points=[[0,0.5],[1,0.5]];portConstraint=eastwest;top=0;left=0;right=0;bottom=1;fontStyle=1;align=center;fontColor=#000000;strokeColor=#696969;strokeWidth=3;" parent="7UvQwR4lHRqra6OR5dTo-18" vertex="1">
                    <mxGeometry y="532" width="1230" height="62" as="geometry"/>
                </mxCell>
                <mxCell id="7UvQwR4lHRqra6OR5dTo-48" value="WebApi" style="shape=partialRectangle;connectable=0;fillColor=none;top=0;left=0;bottom=0;right=0;fontStyle=1;overflow=hidden;fontSize=25;fontColor=#000000;strokeColor=#696969;strokeWidth=3;" parent="7UvQwR4lHRqra6OR5dTo-47" vertex="1">
                    <mxGeometry width="270" height="62" as="geometry">
                        <mxRectangle width="270" height="62" as="alternateBounds"/>
                    </mxGeometry>
                </mxCell>
                <mxCell id="7UvQwR4lHRqra6OR5dTo-49" value="Core" style="shape=partialRectangle;connectable=0;fillColor=none;top=0;left=0;bottom=0;right=0;align=center;spacingLeft=6;fontStyle=1;overflow=hidden;fontSize=25;fontColor=#000000;strokeColor=#696969;strokeWidth=3;" parent="7UvQwR4lHRqra6OR5dTo-47" vertex="1">
                    <mxGeometry x="270" width="700" height="62" as="geometry">
                        <mxRectangle width="700" height="62" as="alternateBounds"/>
                    </mxGeometry>
                </mxCell>
                <mxCell id="7UvQwR4lHRqra6OR5dTo-52" value="DB" style="shape=partialRectangle;connectable=0;fillColor=none;top=0;left=0;bottom=0;right=0;align=center;spacingLeft=6;fontStyle=1;overflow=hidden;fontSize=25;fontColor=#000000;strokeColor=#696969;strokeWidth=3;" parent="7UvQwR4lHRqra6OR5dTo-47" vertex="1">
                    <mxGeometry x="970" width="260" height="62" as="geometry">
                        <mxRectangle width="260" height="62" as="alternateBounds"/>
                    </mxGeometry>
                </mxCell>
                <mxCell id="7UvQwR4lHRqra6OR5dTo-75" style="edgeStyle=entityRelationEdgeStyle;rounded=0;orthogonalLoop=1;jettySize=auto;html=1;entryX=0;entryY=0.5;entryDx=0;entryDy=0;fontSize=25;fontColor=#000000;strokeColor=#696969;strokeWidth=3;" parent="WIyWlLk6GJQsqaUBKTNV-1" source="7UvQwR4lHRqra6OR5dTo-53" target="7UvQwR4lHRqra6OR5dTo-72" edge="1">
                    <mxGeometry relative="1" as="geometry"/>
                </mxCell>
                <mxCell id="7UvQwR4lHRqra6OR5dTo-53" value="Request" style="swimlane;fontStyle=0;childLayout=stackLayout;horizontal=1;startSize=26;horizontalStack=0;resizeParent=1;resizeParentMax=0;resizeLast=0;collapsible=1;marginBottom=0;align=center;fontSize=14;strokeWidth=3;fillColor=#60a917;strokeColor=#2D7600;fontColor=#ffffff;" parent="WIyWlLk6GJQsqaUBKTNV-1" vertex="1">
                    <mxGeometry x="-565" y="120" width="160" height="86" as="geometry"/>
                </mxCell>
                <mxCell id="7UvQwR4lHRqra6OR5dTo-54" value="Email" style="text;strokeColor=#696969;fillColor=none;spacingLeft=4;spacingRight=4;overflow=hidden;rotatable=0;points=[[0,0.5],[1,0.5]];portConstraint=eastwest;fontSize=12;fontColor=#000000;strokeWidth=3;" parent="7UvQwR4lHRqra6OR5dTo-53" vertex="1">
                    <mxGeometry y="26" width="160" height="30" as="geometry"/>
                </mxCell>
                <mxCell id="7UvQwR4lHRqra6OR5dTo-55" value="Password" style="text;strokeColor=#696969;fillColor=none;spacingLeft=4;spacingRight=4;overflow=hidden;rotatable=0;points=[[0,0.5],[1,0.5]];portConstraint=eastwest;fontSize=12;fontColor=#000000;strokeWidth=3;" parent="7UvQwR4lHRqra6OR5dTo-53" vertex="1">
                    <mxGeometry y="56" width="160" height="30" as="geometry"/>
                </mxCell>
                <mxCell id="7UvQwR4lHRqra6OR5dTo-71" style="edgeStyle=entityRelationEdgeStyle;rounded=0;orthogonalLoop=1;jettySize=auto;html=1;entryX=0.011;entryY=0.082;entryDx=0;entryDy=0;fontSize=25;entryPerimeter=0;fontColor=#000000;strokeColor=#696969;strokeWidth=3;" parent="WIyWlLk6GJQsqaUBKTNV-1" source="7UvQwR4lHRqra6OR5dTo-57" target="7UvQwR4lHRqra6OR5dTo-68" edge="1">
                    <mxGeometry relative="1" as="geometry"/>
                </mxCell>
                <mxCell id="7UvQwR4lHRqra6OR5dTo-57" value="Output" style="swimlane;fontStyle=0;childLayout=stackLayout;horizontal=1;startSize=26;horizontalStack=0;resizeParent=1;resizeParentMax=0;resizeLast=0;collapsible=1;marginBottom=0;align=center;fontSize=14;strokeWidth=3;fontColor=#FFFFFF;strokeColor=#696969;" parent="WIyWlLk6GJQsqaUBKTNV-1" vertex="1">
                    <mxGeometry x="120" y="110" width="160" height="146" as="geometry"/>
                </mxCell>
                <mxCell id="7UvQwR4lHRqra6OR5dTo-58" value="Email" style="text;strokeColor=#696969;fillColor=none;spacingLeft=4;spacingRight=4;overflow=hidden;rotatable=0;points=[[0,0.5],[1,0.5]];portConstraint=eastwest;fontSize=12;fontColor=#000000;strokeWidth=3;" parent="7UvQwR4lHRqra6OR5dTo-57" vertex="1">
                    <mxGeometry y="26" width="160" height="30" as="geometry"/>
                </mxCell>
                <mxCell id="7UvQwR4lHRqra6OR5dTo-59" value="Password" style="text;strokeColor=#696969;fillColor=none;spacingLeft=4;spacingRight=4;overflow=hidden;rotatable=0;points=[[0,0.5],[1,0.5]];portConstraint=eastwest;fontSize=12;fontColor=#000000;strokeWidth=3;" parent="7UvQwR4lHRqra6OR5dTo-57" vertex="1">
                    <mxGeometry y="56" width="160" height="30" as="geometry"/>
                </mxCell>
                <mxCell id="7UvQwR4lHRqra6OR5dTo-60" value="Guid" style="text;strokeColor=#696969;fillColor=none;spacingLeft=4;spacingRight=4;overflow=hidden;rotatable=0;points=[[0,0.5],[1,0.5]];portConstraint=eastwest;fontSize=12;fontColor=#000000;strokeWidth=3;" parent="7UvQwR4lHRqra6OR5dTo-57" vertex="1">
                    <mxGeometry y="86" width="160" height="30" as="geometry"/>
                </mxCell>
                <mxCell id="7UvQwR4lHRqra6OR5dTo-64" value="Role" style="text;strokeColor=#696969;fillColor=none;spacingLeft=4;spacingRight=4;overflow=hidden;rotatable=0;points=[[0,0.5],[1,0.5]];portConstraint=eastwest;fontSize=12;fontColor=#000000;strokeWidth=3;" parent="7UvQwR4lHRqra6OR5dTo-57" vertex="1">
                    <mxGeometry y="116" width="160" height="30" as="geometry"/>
                </mxCell>
                <mxCell id="7UvQwR4lHRqra6OR5dTo-65" value="Users&#10;(DbAccountModel)" style="swimlane;fontStyle=0;childLayout=stackLayout;horizontal=1;startSize=40;horizontalStack=0;resizeParent=1;resizeParentMax=0;resizeLast=0;collapsible=1;marginBottom=0;align=center;fontSize=14;strokeWidth=3;fillColor=#60a917;strokeColor=#2D7600;fontColor=#ffffff;" parent="WIyWlLk6GJQsqaUBKTNV-1" vertex="1">
                    <mxGeometry x="420" y="110" width="160" height="160" as="geometry"/>
                </mxCell>
                <mxCell id="7UvQwR4lHRqra6OR5dTo-66" value="Guid" style="text;strokeColor=#696969;fillColor=none;spacingLeft=4;spacingRight=4;overflow=hidden;rotatable=0;points=[[0,0.5],[1,0.5]];portConstraint=eastwest;fontSize=12;fontStyle=1;fontColor=#000000;strokeWidth=3;" parent="7UvQwR4lHRqra6OR5dTo-65" vertex="1">
                    <mxGeometry y="40" width="160" height="30" as="geometry"/>
                </mxCell>
                <mxCell id="7UvQwR4lHRqra6OR5dTo-67" value="Email" style="text;strokeColor=#696969;fillColor=none;spacingLeft=4;spacingRight=4;overflow=hidden;rotatable=0;points=[[0,0.5],[1,0.5]];portConstraint=eastwest;fontSize=12;fontColor=#000000;strokeWidth=3;" parent="7UvQwR4lHRqra6OR5dTo-65" vertex="1">
                    <mxGeometry y="70" width="160" height="30" as="geometry"/>
                </mxCell>
                <mxCell id="7UvQwR4lHRqra6OR5dTo-68" value="Password" style="text;strokeColor=#696969;fillColor=none;spacingLeft=4;spacingRight=4;overflow=hidden;rotatable=0;points=[[0,0.5],[1,0.5]];portConstraint=eastwest;fontSize=12;fontColor=#000000;strokeWidth=3;" parent="7UvQwR4lHRqra6OR5dTo-65" vertex="1">
                    <mxGeometry y="100" width="160" height="30" as="geometry"/>
                </mxCell>
                <mxCell id="7UvQwR4lHRqra6OR5dTo-70" value="Role" style="text;strokeColor=#696969;fillColor=none;spacingLeft=4;spacingRight=4;overflow=hidden;rotatable=0;points=[[0,0.5],[1,0.5]];portConstraint=eastwest;fontSize=12;fontColor=#000000;strokeWidth=3;" parent="7UvQwR4lHRqra6OR5dTo-65" vertex="1">
                    <mxGeometry y="130" width="160" height="30" as="geometry"/>
                </mxCell>
                <mxCell id="7UvQwR4lHRqra6OR5dTo-76" style="edgeStyle=entityRelationEdgeStyle;rounded=0;orthogonalLoop=1;jettySize=auto;html=1;fontSize=25;entryX=0.003;entryY=-0.094;entryDx=0;entryDy=0;entryPerimeter=0;fontColor=#000000;strokeColor=#696969;strokeWidth=3;" parent="WIyWlLk6GJQsqaUBKTNV-1" source="7UvQwR4lHRqra6OR5dTo-72" target="7UvQwR4lHRqra6OR5dTo-59" edge="1">
                    <mxGeometry relative="1" as="geometry"/>
                </mxCell>
                <mxCell id="7UvQwR4lHRqra6OR5dTo-72" value="Input" style="swimlane;fontStyle=0;childLayout=stackLayout;horizontal=1;startSize=26;horizontalStack=0;resizeParent=1;resizeParentMax=0;resizeLast=0;collapsible=1;marginBottom=0;align=center;fontSize=14;strokeWidth=3;fontColor=#FFFFFF;strokeColor=#696969;" parent="WIyWlLk6GJQsqaUBKTNV-1" vertex="1">
                    <mxGeometry x="-280" y="120" width="160" height="86" as="geometry"/>
                </mxCell>
                <mxCell id="7UvQwR4lHRqra6OR5dTo-73" value="Email" style="text;strokeColor=#696969;fillColor=none;spacingLeft=4;spacingRight=4;overflow=hidden;rotatable=0;points=[[0,0.5],[1,0.5]];portConstraint=eastwest;fontSize=12;fontColor=#000000;strokeWidth=3;" parent="7UvQwR4lHRqra6OR5dTo-72" vertex="1">
                    <mxGeometry y="26" width="160" height="30" as="geometry"/>
                </mxCell>
                <mxCell id="7UvQwR4lHRqra6OR5dTo-74" value="Password" style="text;strokeColor=#696969;fillColor=none;spacingLeft=4;spacingRight=4;overflow=hidden;rotatable=0;points=[[0,0.5],[1,0.5]];portConstraint=eastwest;fontSize=12;fontColor=#000000;strokeWidth=3;" parent="7UvQwR4lHRqra6OR5dTo-72" vertex="1">
                    <mxGeometry y="56" width="160" height="30" as="geometry"/>
                </mxCell>
                <mxCell id="7UvQwR4lHRqra6OR5dTo-77" value="Input" style="swimlane;fontStyle=0;childLayout=stackLayout;horizontal=1;startSize=26;horizontalStack=0;resizeParent=1;resizeParentMax=0;resizeLast=0;collapsible=1;marginBottom=0;align=center;fontSize=14;strokeWidth=3;fontColor=#FFFFFF;strokeColor=#696969;" parent="WIyWlLk6GJQsqaUBKTNV-1" vertex="1">
                    <mxGeometry x="120" y="420" width="160" height="56" as="geometry"/>
                </mxCell>
                <mxCell id="7UvQwR4lHRqra6OR5dTo-78" value="User" style="text;strokeColor=#696969;fillColor=none;spacingLeft=4;spacingRight=4;overflow=hidden;rotatable=0;points=[[0,0.5],[1,0.5]];portConstraint=eastwest;fontSize=12;fontColor=#000000;strokeWidth=3;" parent="7UvQwR4lHRqra6OR5dTo-77" vertex="1">
                    <mxGeometry y="26" width="160" height="30" as="geometry"/>
                </mxCell>
                <mxCell id="7UvQwR4lHRqra6OR5dTo-81" value="" style="endArrow=classic;html=1;rounded=0;fontSize=25;entryX=1;entryY=0.5;entryDx=0;entryDy=0;exitX=0.5;exitY=1;exitDx=0;exitDy=0;edgeStyle=entityRelationEdgeStyle;fontColor=#000000;strokeColor=#696969;strokeWidth=3;" parent="WIyWlLk6GJQsqaUBKTNV-1" source="7UvQwR4lHRqra6OR5dTo-65" target="7UvQwR4lHRqra6OR5dTo-78" edge="1">
                    <mxGeometry width="50" height="50" relative="1" as="geometry">
                        <mxPoint x="320" y="430" as="sourcePoint"/>
                        <mxPoint x="370" y="380" as="targetPoint"/>
                    </mxGeometry>
                </mxCell>
                <mxCell id="7UvQwR4lHRqra6OR5dTo-92" style="edgeStyle=entityRelationEdgeStyle;rounded=0;orthogonalLoop=1;jettySize=auto;html=1;entryX=1;entryY=0.5;entryDx=0;entryDy=0;fontSize=25;fontColor=#000000;strokeColor=#696969;strokeWidth=3;" parent="WIyWlLk6GJQsqaUBKTNV-1" source="7UvQwR4lHRqra6OR5dTo-82" target="7UvQwR4lHRqra6OR5dTo-88" edge="1">
                    <mxGeometry relative="1" as="geometry"/>
                </mxCell>
                <mxCell id="7UvQwR4lHRqra6OR5dTo-82" value="Output" style="swimlane;fontStyle=0;childLayout=stackLayout;horizontal=1;startSize=26;horizontalStack=0;resizeParent=1;resizeParentMax=0;resizeLast=0;collapsible=1;marginBottom=0;align=center;fontSize=14;strokeWidth=3;fontColor=#FFFFFF;strokeColor=#696969;" parent="WIyWlLk6GJQsqaUBKTNV-1" vertex="1">
                    <mxGeometry x="-290" y="400" width="160" height="116" as="geometry"/>
                </mxCell>
                <mxCell id="7UvQwR4lHRqra6OR5dTo-84" value="Status" style="text;strokeColor=#696969;fillColor=none;spacingLeft=4;spacingRight=4;overflow=hidden;rotatable=0;points=[[0,0.5],[1,0.5]];portConstraint=eastwest;fontSize=12;fontColor=#000000;strokeWidth=3;" parent="7UvQwR4lHRqra6OR5dTo-82" vertex="1">
                    <mxGeometry y="26" width="160" height="30" as="geometry"/>
                </mxCell>
                <mxCell id="7UvQwR4lHRqra6OR5dTo-85" value="Token" style="text;strokeColor=#696969;fillColor=none;spacingLeft=4;spacingRight=4;overflow=hidden;rotatable=0;points=[[0,0.5],[1,0.5]];portConstraint=eastwest;fontSize=12;fontColor=#000000;strokeWidth=3;" parent="7UvQwR4lHRqra6OR5dTo-82" vertex="1">
                    <mxGeometry y="56" width="160" height="30" as="geometry"/>
                </mxCell>
                <mxCell id="7UvQwR4lHRqra6OR5dTo-86" value="Text" style="text;strokeColor=#696969;fillColor=none;spacingLeft=4;spacingRight=4;overflow=hidden;rotatable=0;points=[[0,0.5],[1,0.5]];portConstraint=eastwest;fontSize=12;fontColor=#000000;strokeWidth=3;" parent="7UvQwR4lHRqra6OR5dTo-82" vertex="1">
                    <mxGeometry y="86" width="160" height="30" as="geometry"/>
                </mxCell>
                <mxCell id="7UvQwR4lHRqra6OR5dTo-87" style="edgeStyle=entityRelationEdgeStyle;rounded=0;orthogonalLoop=1;jettySize=auto;html=1;entryX=1.007;entryY=0.239;entryDx=0;entryDy=0;entryPerimeter=0;fontSize=25;fontColor=#000000;strokeColor=#696969;strokeWidth=3;" parent="WIyWlLk6GJQsqaUBKTNV-1" source="7UvQwR4lHRqra6OR5dTo-78" target="7UvQwR4lHRqra6OR5dTo-85" edge="1">
                    <mxGeometry relative="1" as="geometry"/>
                </mxCell>
                <mxCell id="7UvQwR4lHRqra6OR5dTo-88" value="Response" style="swimlane;fontStyle=0;childLayout=stackLayout;horizontal=1;startSize=26;horizontalStack=0;resizeParent=1;resizeParentMax=0;resizeLast=0;collapsible=1;marginBottom=0;align=center;fontSize=14;strokeWidth=3;fillColor=#60a917;strokeColor=#2D7600;fontColor=#ffffff;" parent="WIyWlLk6GJQsqaUBKTNV-1" vertex="1">
                    <mxGeometry x="-574" y="400" width="160" height="116" as="geometry"/>
                </mxCell>
                <mxCell id="7UvQwR4lHRqra6OR5dTo-89" value="Status" style="text;strokeColor=#696969;fillColor=none;spacingLeft=4;spacingRight=4;overflow=hidden;rotatable=0;points=[[0,0.5],[1,0.5]];portConstraint=eastwest;fontSize=12;fontColor=#000000;strokeWidth=3;" parent="7UvQwR4lHRqra6OR5dTo-88" vertex="1">
                    <mxGeometry y="26" width="160" height="30" as="geometry"/>
                </mxCell>
                <mxCell id="7UvQwR4lHRqra6OR5dTo-90" value="Token" style="text;strokeColor=#696969;fillColor=none;spacingLeft=4;spacingRight=4;overflow=hidden;rotatable=0;points=[[0,0.5],[1,0.5]];portConstraint=eastwest;fontSize=12;fontColor=#000000;strokeWidth=3;" parent="7UvQwR4lHRqra6OR5dTo-88" vertex="1">
                    <mxGeometry y="56" width="160" height="30" as="geometry"/>
                </mxCell>
                <mxCell id="7UvQwR4lHRqra6OR5dTo-91" value="Message" style="text;strokeColor=#696969;fillColor=none;spacingLeft=4;spacingRight=4;overflow=hidden;rotatable=0;points=[[0,0.5],[1,0.5]];portConstraint=eastwest;fontSize=12;fontColor=#000000;strokeWidth=3;" parent="7UvQwR4lHRqra6OR5dTo-88" vertex="1">
                    <mxGeometry y="86" width="160" height="30" as="geometry"/>
                </mxCell>
                <mxCell id="7UvQwR4lHRqra6OR5dTo-93" value="Question(create)" style="shape=table;startSize=30;container=1;collapsible=1;childLayout=tableLayout;fixedRows=1;rowLines=0;fontStyle=1;align=center;resizeLast=1;dashed=1;dashPattern=1 1;fontColor=#FFFFFF;strokeColor=#696969;strokeWidth=3;" parent="WIyWlLk6GJQsqaUBKTNV-1" vertex="1">
                    <mxGeometry x="-630" y="700" width="1230" height="1382" as="geometry"/>
                </mxCell>
                <mxCell id="7UvQwR4lHRqra6OR5dTo-94" value="" style="shape=tableRow;horizontal=0;startSize=0;swimlaneHead=0;swimlaneBody=0;fillColor=none;collapsible=0;dropTarget=0;points=[[0,0.5],[1,0.5]];portConstraint=eastwest;top=0;left=0;right=0;bottom=1;fontColor=#000000;strokeColor=#696969;strokeWidth=3;" parent="7UvQwR4lHRqra6OR5dTo-93" vertex="1">
                    <mxGeometry y="30" width="1230" height="602" as="geometry"/>
                </mxCell>
                <mxCell id="7UvQwR4lHRqra6OR5dTo-95" value="" style="shape=partialRectangle;connectable=0;fillColor=none;top=0;left=0;bottom=0;right=0;fontStyle=1;overflow=hidden;fontColor=#000000;strokeColor=#696969;strokeWidth=3;" parent="7UvQwR4lHRqra6OR5dTo-94" vertex="1">
                    <mxGeometry width="270" height="602" as="geometry">
                        <mxRectangle width="270" height="602" as="alternateBounds"/>
                    </mxGeometry>
                </mxCell>
                <mxCell id="7UvQwR4lHRqra6OR5dTo-96" value="" style="shape=partialRectangle;connectable=0;fillColor=none;top=0;left=0;bottom=0;right=0;align=left;spacingLeft=6;fontStyle=5;overflow=hidden;fontColor=#000000;strokeColor=#696969;strokeWidth=3;" parent="7UvQwR4lHRqra6OR5dTo-94" vertex="1">
                    <mxGeometry x="270" width="700" height="602" as="geometry">
                        <mxRectangle width="700" height="602" as="alternateBounds"/>
                    </mxGeometry>
                </mxCell>
                <mxCell id="7UvQwR4lHRqra6OR5dTo-97" style="shape=partialRectangle;connectable=0;fillColor=none;top=0;left=0;bottom=0;right=0;align=left;spacingLeft=6;fontStyle=5;overflow=hidden;fontColor=#000000;strokeColor=#696969;strokeWidth=3;" parent="7UvQwR4lHRqra6OR5dTo-94" vertex="1">
                    <mxGeometry x="970" width="260" height="602" as="geometry">
                        <mxRectangle width="260" height="602" as="alternateBounds"/>
                    </mxGeometry>
                </mxCell>
                <mxCell id="7UvQwR4lHRqra6OR5dTo-98" style="shape=tableRow;horizontal=0;startSize=0;swimlaneHead=0;swimlaneBody=0;fillColor=none;collapsible=0;dropTarget=0;points=[[0,0.5],[1,0.5]];portConstraint=eastwest;top=0;left=0;right=0;bottom=1;fontStyle=1;align=center;fontColor=#000000;strokeColor=#696969;strokeWidth=3;" parent="7UvQwR4lHRqra6OR5dTo-93" vertex="1">
                    <mxGeometry y="632" width="1230" height="62" as="geometry"/>
                </mxCell>
                <mxCell id="7UvQwR4lHRqra6OR5dTo-99" value="WebApi" style="shape=partialRectangle;connectable=0;fillColor=none;top=0;left=0;bottom=0;right=0;fontStyle=1;overflow=hidden;fontSize=25;fontColor=#000000;strokeColor=#696969;strokeWidth=3;" parent="7UvQwR4lHRqra6OR5dTo-98" vertex="1">
                    <mxGeometry width="270" height="62" as="geometry">
                        <mxRectangle width="270" height="62" as="alternateBounds"/>
                    </mxGeometry>
                </mxCell>
                <mxCell id="7UvQwR4lHRqra6OR5dTo-100" value="Core" style="shape=partialRectangle;connectable=0;fillColor=none;top=0;left=0;bottom=0;right=0;align=center;spacingLeft=6;fontStyle=1;overflow=hidden;fontSize=25;fontColor=#000000;strokeColor=#696969;strokeWidth=3;" parent="7UvQwR4lHRqra6OR5dTo-98" vertex="1">
                    <mxGeometry x="270" width="700" height="62" as="geometry">
                        <mxRectangle width="700" height="62" as="alternateBounds"/>
                    </mxGeometry>
                </mxCell>
                <mxCell id="7UvQwR4lHRqra6OR5dTo-101" value="DB" style="shape=partialRectangle;connectable=0;fillColor=none;top=0;left=0;bottom=0;right=0;align=center;spacingLeft=6;fontStyle=1;overflow=hidden;fontSize=25;fontColor=#000000;strokeColor=#696969;strokeWidth=3;" parent="7UvQwR4lHRqra6OR5dTo-98" vertex="1">
                    <mxGeometry x="970" width="260" height="62" as="geometry">
                        <mxRectangle width="260" height="62" as="alternateBounds"/>
                    </mxGeometry>
                </mxCell>
                <mxCell id="7UvQwR4lHRqra6OR5dTo-165" value="" style="shape=tableRow;horizontal=0;startSize=0;swimlaneHead=0;swimlaneBody=0;fillColor=none;collapsible=0;dropTarget=0;points=[[0,0.5],[1,0.5]];portConstraint=eastwest;top=0;left=0;right=0;bottom=1;fontColor=#000000;strokeColor=#696969;strokeWidth=3;" parent="7UvQwR4lHRqra6OR5dTo-93" vertex="1">
                    <mxGeometry y="694" width="1230" height="602" as="geometry"/>
                </mxCell>
                <mxCell id="7UvQwR4lHRqra6OR5dTo-166" value="" style="shape=partialRectangle;connectable=0;fillColor=none;top=0;left=0;bottom=0;right=0;fontStyle=1;overflow=hidden;fontColor=#000000;strokeColor=#696969;strokeWidth=3;" parent="7UvQwR4lHRqra6OR5dTo-165" vertex="1">
                    <mxGeometry width="270" height="602" as="geometry">
                        <mxRectangle width="270" height="602" as="alternateBounds"/>
                    </mxGeometry>
                </mxCell>
                <mxCell id="7UvQwR4lHRqra6OR5dTo-167" value="" style="shape=partialRectangle;connectable=0;fillColor=none;top=0;left=0;bottom=0;right=0;align=left;spacingLeft=6;fontStyle=5;overflow=hidden;fontColor=#000000;strokeColor=#696969;strokeWidth=3;" parent="7UvQwR4lHRqra6OR5dTo-165" vertex="1">
                    <mxGeometry x="270" width="700" height="602" as="geometry">
                        <mxRectangle width="700" height="602" as="alternateBounds"/>
                    </mxGeometry>
                </mxCell>
                <mxCell id="7UvQwR4lHRqra6OR5dTo-168" style="shape=partialRectangle;connectable=0;fillColor=none;top=0;left=0;bottom=0;right=0;align=left;spacingLeft=6;fontStyle=5;overflow=hidden;fontColor=#000000;strokeColor=#696969;strokeWidth=3;" parent="7UvQwR4lHRqra6OR5dTo-165" vertex="1">
                    <mxGeometry x="970" width="260" height="602" as="geometry">
                        <mxRectangle width="260" height="602" as="alternateBounds"/>
                    </mxGeometry>
                </mxCell>
                <mxCell id="7UvQwR4lHRqra6OR5dTo-169" style="shape=tableRow;horizontal=0;startSize=0;swimlaneHead=0;swimlaneBody=0;fillColor=none;collapsible=0;dropTarget=0;points=[[0,0.5],[1,0.5]];portConstraint=eastwest;top=0;left=0;right=0;bottom=1;fontStyle=1;align=center;fontColor=#000000;strokeColor=#696969;strokeWidth=3;" parent="7UvQwR4lHRqra6OR5dTo-93" vertex="1">
                    <mxGeometry y="1296" width="1230" height="62" as="geometry"/>
                </mxCell>
                <mxCell id="7UvQwR4lHRqra6OR5dTo-170" value="WebApi" style="shape=partialRectangle;connectable=0;fillColor=none;top=0;left=0;bottom=0;right=0;fontStyle=1;overflow=hidden;fontSize=25;fontColor=#000000;strokeColor=#696969;strokeWidth=3;" parent="7UvQwR4lHRqra6OR5dTo-169" vertex="1">
                    <mxGeometry width="270" height="62" as="geometry">
                        <mxRectangle width="270" height="62" as="alternateBounds"/>
                    </mxGeometry>
                </mxCell>
                <mxCell id="7UvQwR4lHRqra6OR5dTo-171" value="Core" style="shape=partialRectangle;connectable=0;fillColor=none;top=0;left=0;bottom=0;right=0;align=center;spacingLeft=6;fontStyle=1;overflow=hidden;fontSize=25;fontColor=#000000;strokeColor=#696969;strokeWidth=3;" parent="7UvQwR4lHRqra6OR5dTo-169" vertex="1">
                    <mxGeometry x="270" width="700" height="62" as="geometry">
                        <mxRectangle width="700" height="62" as="alternateBounds"/>
                    </mxGeometry>
                </mxCell>
                <mxCell id="7UvQwR4lHRqra6OR5dTo-172" value="DB" style="shape=partialRectangle;connectable=0;fillColor=none;top=0;left=0;bottom=0;right=0;align=center;spacingLeft=6;fontStyle=1;overflow=hidden;fontSize=25;fontColor=#000000;strokeColor=#696969;strokeWidth=3;" parent="7UvQwR4lHRqra6OR5dTo-169" vertex="1">
                    <mxGeometry x="970" width="260" height="62" as="geometry">
                        <mxRectangle width="260" height="62" as="alternateBounds"/>
                    </mxGeometry>
                </mxCell>
                <mxCell id="AqzM5bqXc-fwZ_wGa6BH-6" style="edgeStyle=orthogonalEdgeStyle;rounded=0;orthogonalLoop=1;jettySize=auto;html=1;fontColor=#000000;strokeColor=#696969;strokeWidth=3;" parent="WIyWlLk6GJQsqaUBKTNV-1" source="7UvQwR4lHRqra6OR5dTo-102" target="7UvQwR4lHRqra6OR5dTo-105" edge="1">
                    <mxGeometry relative="1" as="geometry"/>
                </mxCell>
                <mxCell id="7UvQwR4lHRqra6OR5dTo-102" value="Request" style="swimlane;fontStyle=0;childLayout=stackLayout;horizontal=1;startSize=26;horizontalStack=0;resizeParent=1;resizeParentMax=0;resizeLast=0;collapsible=1;marginBottom=0;align=center;fontSize=14;strokeWidth=3;fillColor=#60a917;strokeColor=#2D7600;fontColor=#ffffff;" parent="WIyWlLk6GJQsqaUBKTNV-1" vertex="1">
                    <mxGeometry x="-574" y="790" width="160" height="146" as="geometry"/>
                </mxCell>
                <mxCell id="0" value="Question" style="text;strokeColor=#696969;fillColor=none;spacingLeft=4;spacingRight=4;overflow=hidden;rotatable=0;points=[[0,0.5],[1,0.5]];portConstraint=eastwest;fontSize=12;fontColor=#000000;strokeWidth=3;" parent="7UvQwR4lHRqra6OR5dTo-102" vertex="1">
                    <mxGeometry y="26" width="160" height="30" as="geometry"/>
                </mxCell>
                <mxCell id="7UvQwR4lHRqra6OR5dTo-122" value="Date" style="text;strokeColor=#696969;fillColor=none;spacingLeft=4;spacingRight=4;overflow=hidden;rotatable=0;points=[[0,0.5],[1,0.5]];portConstraint=eastwest;fontSize=12;fontColor=#000000;strokeWidth=3;" parent="7UvQwR4lHRqra6OR5dTo-102" vertex="1">
                    <mxGeometry y="56" width="160" height="30" as="geometry"/>
                </mxCell>
                <mxCell id="7UvQwR4lHRqra6OR5dTo-115" value="_____________________" style="text;strokeColor=#696969;fillColor=none;spacingLeft=4;spacingRight=4;overflow=hidden;rotatable=0;points=[[0,0.5],[1,0.5]];portConstraint=eastwest;fontSize=12;fontColor=#000000;strokeWidth=3;" parent="7UvQwR4lHRqra6OR5dTo-102" vertex="1">
                    <mxGeometry y="86" width="160" height="30" as="geometry"/>
                </mxCell>
                <mxCell id="7UvQwR4lHRqra6OR5dTo-114" value="Token" style="text;strokeColor=#696969;fillColor=none;spacingLeft=4;spacingRight=4;overflow=hidden;rotatable=0;points=[[0,0.5],[1,0.5]];portConstraint=eastwest;fontSize=12;fontColor=#000000;strokeWidth=3;" parent="7UvQwR4lHRqra6OR5dTo-102" vertex="1">
                    <mxGeometry y="116" width="160" height="30" as="geometry"/>
                </mxCell>
                <mxCell id="7UvQwR4lHRqra6OR5dTo-105" value="Input" style="swimlane;fontStyle=0;childLayout=stackLayout;horizontal=1;startSize=26;horizontalStack=0;resizeParent=1;resizeParentMax=0;resizeLast=0;collapsible=1;marginBottom=0;align=center;fontSize=14;strokeWidth=3;fontColor=#FFFFFF;strokeColor=#696969;" parent="WIyWlLk6GJQsqaUBKTNV-1" vertex="1">
                    <mxGeometry x="-290" y="790" width="160" height="146" as="geometry"/>
                </mxCell>
                <mxCell id="7UvQwR4lHRqra6OR5dTo-107" value="Text" style="text;strokeColor=#696969;fillColor=none;spacingLeft=4;spacingRight=4;overflow=hidden;rotatable=0;points=[[0,0.5],[1,0.5]];portConstraint=eastwest;fontSize=12;fontColor=#000000;strokeWidth=3;" parent="7UvQwR4lHRqra6OR5dTo-105" vertex="1">
                    <mxGeometry y="26" width="160" height="30" as="geometry"/>
                </mxCell>
                <mxCell id="7UvQwR4lHRqra6OR5dTo-123" value="Date" style="text;strokeColor=#696969;fillColor=none;spacingLeft=4;spacingRight=4;overflow=hidden;rotatable=0;points=[[0,0.5],[1,0.5]];portConstraint=eastwest;fontSize=12;fontColor=#000000;strokeWidth=3;" parent="7UvQwR4lHRqra6OR5dTo-105" vertex="1">
                    <mxGeometry y="56" width="160" height="30" as="geometry"/>
                </mxCell>
                <mxCell id="7UvQwR4lHRqra6OR5dTo-117" value="______________________" style="text;strokeColor=#696969;fillColor=none;spacingLeft=4;spacingRight=4;overflow=hidden;rotatable=0;points=[[0,0.5],[1,0.5]];portConstraint=eastwest;fontSize=12;fontColor=#000000;strokeWidth=3;" parent="7UvQwR4lHRqra6OR5dTo-105" vertex="1">
                    <mxGeometry y="86" width="160" height="30" as="geometry"/>
                </mxCell>
                <mxCell id="7UvQwR4lHRqra6OR5dTo-116" value="Token" style="text;strokeColor=#696969;fillColor=none;spacingLeft=4;spacingRight=4;overflow=hidden;rotatable=0;points=[[0,0.5],[1,0.5]];portConstraint=eastwest;fontSize=12;fontColor=#000000;strokeWidth=3;" parent="7UvQwR4lHRqra6OR5dTo-105" vertex="1">
                    <mxGeometry y="116" width="160" height="30" as="geometry"/>
                </mxCell>
                <mxCell id="7UvQwR4lHRqra6OR5dTo-109" value="Output" style="swimlane;fontStyle=0;childLayout=stackLayout;horizontal=1;startSize=26;horizontalStack=0;resizeParent=1;resizeParentMax=0;resizeLast=0;collapsible=1;marginBottom=0;align=center;fontSize=14;strokeWidth=3;fontColor=#FFFFFF;strokeColor=#696969;" parent="WIyWlLk6GJQsqaUBKTNV-1" vertex="1">
                    <mxGeometry x="140" y="920" width="160" height="146" as="geometry"/>
                </mxCell>
                <mxCell id="AqzM5bqXc-fwZ_wGa6BH-32" value="Id" style="text;strokeColor=#696969;fillColor=none;spacingLeft=4;spacingRight=4;overflow=hidden;rotatable=0;points=[[0,0.5],[1,0.5]];portConstraint=eastwest;fontSize=12;fontColor=#000000;strokeWidth=3;" parent="7UvQwR4lHRqra6OR5dTo-109" vertex="1">
                    <mxGeometry y="26" width="160" height="30" as="geometry"/>
                </mxCell>
                <mxCell id="7UvQwR4lHRqra6OR5dTo-110" value="User" style="text;strokeColor=#696969;fillColor=none;spacingLeft=4;spacingRight=4;overflow=hidden;rotatable=0;points=[[0,0.5],[1,0.5]];portConstraint=eastwest;fontSize=12;fontColor=#000000;strokeWidth=3;" parent="7UvQwR4lHRqra6OR5dTo-109" vertex="1">
                    <mxGeometry y="56" width="160" height="30" as="geometry"/>
                </mxCell>
                <mxCell id="7UvQwR4lHRqra6OR5dTo-111" value="Text" style="text;strokeColor=#696969;fillColor=none;spacingLeft=4;spacingRight=4;overflow=hidden;rotatable=0;points=[[0,0.5],[1,0.5]];portConstraint=eastwest;fontSize=12;fontColor=#000000;strokeWidth=3;" parent="7UvQwR4lHRqra6OR5dTo-109" vertex="1">
                    <mxGeometry y="86" width="160" height="30" as="geometry"/>
                </mxCell>
                <mxCell id="7UvQwR4lHRqra6OR5dTo-112" value="Date" style="text;strokeColor=#696969;fillColor=none;spacingLeft=4;spacingRight=4;overflow=hidden;rotatable=0;points=[[0,0.5],[1,0.5]];portConstraint=eastwest;fontSize=12;fontColor=#000000;strokeWidth=3;" parent="7UvQwR4lHRqra6OR5dTo-109" vertex="1">
                    <mxGeometry y="116" width="160" height="30" as="geometry"/>
                </mxCell>
                <mxCell id="7UvQwR4lHRqra6OR5dTo-130" style="edgeStyle=entityRelationEdgeStyle;rounded=0;orthogonalLoop=1;jettySize=auto;html=1;entryX=1.014;entryY=0.063;entryDx=0;entryDy=0;fontSize=25;entryPerimeter=0;fontColor=#000000;strokeColor=#696969;strokeWidth=3;" parent="WIyWlLk6GJQsqaUBKTNV-1" source="7UvQwR4lHRqra6OR5dTo-118" target="7UvQwR4lHRqra6OR5dTo-127" edge="1">
                    <mxGeometry relative="1" as="geometry">
                        <mxPoint x="290.00000000000045" y="1111" as="targetPoint"/>
                    </mxGeometry>
                </mxCell>
                <mxCell id="7UvQwR4lHRqra6OR5dTo-118" value="Questions&#10;(DbQuestionModel)" style="swimlane;fontStyle=0;childLayout=stackLayout;horizontal=1;startSize=44;horizontalStack=0;resizeParent=1;resizeParentMax=0;resizeLast=0;collapsible=1;marginBottom=0;align=center;fontSize=14;strokeWidth=3;fillColor=#60a917;strokeColor=#2D7600;fontColor=#ffffff;" parent="WIyWlLk6GJQsqaUBKTNV-1" vertex="1">
                    <mxGeometry x="420" y="986" width="160" height="164" as="geometry"/>
                </mxCell>
                <mxCell id="7UvQwR4lHRqra6OR5dTo-119" value="Id" style="text;strokeColor=#696969;fillColor=none;spacingLeft=4;spacingRight=4;overflow=hidden;rotatable=0;points=[[0,0.5],[1,0.5]];portConstraint=eastwest;fontSize=12;fontStyle=1;fontColor=#000000;strokeWidth=3;" parent="7UvQwR4lHRqra6OR5dTo-118" vertex="1">
                    <mxGeometry y="44" width="160" height="30" as="geometry"/>
                </mxCell>
                <mxCell id="7UvQwR4lHRqra6OR5dTo-120" value="User" style="text;strokeColor=#696969;fillColor=none;spacingLeft=4;spacingRight=4;overflow=hidden;rotatable=0;points=[[0,0.5],[1,0.5]];portConstraint=eastwest;fontSize=12;fontStyle=1;fontColor=#000000;strokeWidth=3;" parent="7UvQwR4lHRqra6OR5dTo-118" vertex="1">
                    <mxGeometry y="74" width="160" height="30" as="geometry"/>
                </mxCell>
                <mxCell id="7UvQwR4lHRqra6OR5dTo-121" value="Text" style="text;strokeColor=#696969;fillColor=none;spacingLeft=4;spacingRight=4;overflow=hidden;rotatable=0;points=[[0,0.5],[1,0.5]];portConstraint=eastwest;fontSize=12;fontColor=#000000;strokeWidth=3;" parent="7UvQwR4lHRqra6OR5dTo-118" vertex="1">
                    <mxGeometry y="104" width="160" height="30" as="geometry"/>
                </mxCell>
                <mxCell id="7UvQwR4lHRqra6OR5dTo-124" value="Date" style="text;strokeColor=#696969;fillColor=none;spacingLeft=4;spacingRight=4;overflow=hidden;rotatable=0;points=[[0,0.5],[1,0.5]];portConstraint=eastwest;fontSize=12;fontColor=#000000;strokeWidth=3;" parent="7UvQwR4lHRqra6OR5dTo-118" vertex="1">
                    <mxGeometry y="134" width="160" height="30" as="geometry"/>
                </mxCell>
                <mxCell id="7UvQwR4lHRqra6OR5dTo-125" style="edgeStyle=entityRelationEdgeStyle;rounded=0;orthogonalLoop=1;jettySize=auto;html=1;entryX=0;entryY=0.5;entryDx=0;entryDy=0;fontSize=25;fontColor=#000000;strokeColor=#696969;strokeWidth=3;" parent="WIyWlLk6GJQsqaUBKTNV-1" source="7UvQwR4lHRqra6OR5dTo-111" target="7UvQwR4lHRqra6OR5dTo-118" edge="1">
                    <mxGeometry relative="1" as="geometry"/>
                </mxCell>
                <mxCell id="7UvQwR4lHRqra6OR5dTo-157" style="edgeStyle=orthogonalEdgeStyle;rounded=0;orthogonalLoop=1;jettySize=auto;html=1;fontSize=25;fontColor=#000000;strokeColor=#696969;strokeWidth=3;" parent="WIyWlLk6GJQsqaUBKTNV-1" source="7UvQwR4lHRqra6OR5dTo-126" target="7UvQwR4lHRqra6OR5dTo-149" edge="1">
                    <mxGeometry relative="1" as="geometry">
                        <Array as="points">
                            <mxPoint x="220" y="1084"/>
                            <mxPoint x="-100" y="1084"/>
                            <mxPoint x="-100" y="1114"/>
                        </Array>
                    </mxGeometry>
                </mxCell>
                <mxCell id="7UvQwR4lHRqra6OR5dTo-126" value="Input" style="swimlane;fontStyle=0;childLayout=stackLayout;horizontal=1;startSize=26;horizontalStack=0;resizeParent=1;resizeParentMax=0;resizeLast=0;collapsible=1;marginBottom=0;align=center;fontSize=14;strokeWidth=3;fontColor=#FFFFFF;strokeColor=#696969;" parent="WIyWlLk6GJQsqaUBKTNV-1" vertex="1">
                    <mxGeometry x="140" y="1113" width="160" height="56" as="geometry"/>
                </mxCell>
                <mxCell id="7UvQwR4lHRqra6OR5dTo-127" value="Question[]" style="text;strokeColor=#696969;fillColor=none;spacingLeft=4;spacingRight=4;overflow=hidden;rotatable=0;points=[[0,0.5],[1,0.5]];portConstraint=eastwest;fontSize=12;fontColor=#000000;strokeWidth=3;" parent="7UvQwR4lHRqra6OR5dTo-126" vertex="1">
                    <mxGeometry y="26" width="160" height="30" as="geometry"/>
                </mxCell>
                <mxCell id="7UvQwR4lHRqra6OR5dTo-147" value="Output" style="swimlane;fontStyle=0;childLayout=stackLayout;horizontal=1;startSize=26;horizontalStack=0;resizeParent=1;resizeParentMax=0;resizeLast=0;collapsible=1;marginBottom=0;align=center;fontSize=14;strokeWidth=3;fontColor=#FFFFFF;strokeColor=#696969;" parent="WIyWlLk6GJQsqaUBKTNV-1" vertex="1">
                    <mxGeometry x="-290" y="1043" width="160" height="116" as="geometry"/>
                </mxCell>
                <mxCell id="7UvQwR4lHRqra6OR5dTo-148" value="Status" style="text;strokeColor=#696969;fillColor=none;spacingLeft=4;spacingRight=4;overflow=hidden;rotatable=0;points=[[0,0.5],[1,0.5]];portConstraint=eastwest;fontSize=12;fontColor=#000000;strokeWidth=3;" parent="7UvQwR4lHRqra6OR5dTo-147" vertex="1">
                    <mxGeometry y="26" width="160" height="30" as="geometry"/>
                </mxCell>
                <mxCell id="7UvQwR4lHRqra6OR5dTo-149" value="Question[]" style="text;strokeColor=#696969;fillColor=none;spacingLeft=4;spacingRight=4;overflow=hidden;rotatable=0;points=[[0,0.5],[1,0.5]];portConstraint=eastwest;fontSize=12;fontColor=#000000;strokeWidth=3;" parent="7UvQwR4lHRqra6OR5dTo-147" vertex="1">
                    <mxGeometry y="56" width="160" height="30" as="geometry"/>
                </mxCell>
                <mxCell id="7UvQwR4lHRqra6OR5dTo-150" value="Messqge" style="text;strokeColor=#696969;fillColor=none;spacingLeft=4;spacingRight=4;overflow=hidden;rotatable=0;points=[[0,0.5],[1,0.5]];portConstraint=eastwest;fontSize=12;fontColor=#000000;strokeWidth=3;" parent="7UvQwR4lHRqra6OR5dTo-147" vertex="1">
                    <mxGeometry y="86" width="160" height="30" as="geometry"/>
                </mxCell>
                <mxCell id="7UvQwR4lHRqra6OR5dTo-151" value="QuestionModel" style="swimlane;fontStyle=0;childLayout=stackLayout;horizontal=1;startSize=26;horizontalStack=0;resizeParent=1;resizeParentMax=0;resizeLast=0;collapsible=1;marginBottom=0;align=center;fontSize=14;strokeWidth=3;fillColor=#60a917;strokeColor=#2D7600;fontColor=#ffffff;" parent="WIyWlLk6GJQsqaUBKTNV-1" vertex="1">
                    <mxGeometry x="-80" y="1150" width="160" height="146" as="geometry"/>
                </mxCell>
                <mxCell id="7UvQwR4lHRqra6OR5dTo-152" value="Id" style="text;strokeColor=#696969;fillColor=none;spacingLeft=4;spacingRight=4;overflow=hidden;rotatable=0;points=[[0,0.5],[1,0.5]];portConstraint=eastwest;fontSize=12;fontColor=#000000;strokeWidth=3;" parent="7UvQwR4lHRqra6OR5dTo-151" vertex="1">
                    <mxGeometry y="26" width="160" height="30" as="geometry"/>
                </mxCell>
                <mxCell id="AqzM5bqXc-fwZ_wGa6BH-27" value="Email" style="text;strokeColor=#696969;fillColor=none;spacingLeft=4;spacingRight=4;overflow=hidden;rotatable=0;points=[[0,0.5],[1,0.5]];portConstraint=eastwest;fontSize=12;fontColor=#000000;strokeWidth=3;" parent="7UvQwR4lHRqra6OR5dTo-151" vertex="1">
                    <mxGeometry y="56" width="160" height="30" as="geometry"/>
                </mxCell>
                <mxCell id="7UvQwR4lHRqra6OR5dTo-153" value="Text" style="text;strokeColor=#696969;fillColor=none;spacingLeft=4;spacingRight=4;overflow=hidden;rotatable=0;points=[[0,0.5],[1,0.5]];portConstraint=eastwest;fontSize=12;fontColor=#000000;strokeWidth=3;" parent="7UvQwR4lHRqra6OR5dTo-151" vertex="1">
                    <mxGeometry y="86" width="160" height="30" as="geometry"/>
                </mxCell>
                <mxCell id="7UvQwR4lHRqra6OR5dTo-154" value="Date" style="text;strokeColor=#696969;fillColor=none;spacingLeft=4;spacingRight=4;overflow=hidden;rotatable=0;points=[[0,0.5],[1,0.5]];portConstraint=eastwest;fontSize=12;fontColor=#000000;strokeWidth=3;" parent="7UvQwR4lHRqra6OR5dTo-151" vertex="1">
                    <mxGeometry y="116" width="160" height="30" as="geometry"/>
                </mxCell>
                <mxCell id="7UvQwR4lHRqra6OR5dTo-156" style="edgeStyle=orthogonalEdgeStyle;rounded=0;orthogonalLoop=1;jettySize=auto;html=1;entryX=0.5;entryY=0;entryDx=0;entryDy=0;fontSize=25;endArrow=none;endFill=0;fontColor=#000000;strokeColor=#696969;strokeWidth=3;" parent="WIyWlLk6GJQsqaUBKTNV-1" source="7UvQwR4lHRqra6OR5dTo-127" target="7UvQwR4lHRqra6OR5dTo-151" edge="1">
                    <mxGeometry relative="1" as="geometry"/>
                </mxCell>
                <mxCell id="7UvQwR4lHRqra6OR5dTo-158" value="Output" style="swimlane;fontStyle=0;childLayout=stackLayout;horizontal=1;startSize=26;horizontalStack=0;resizeParent=1;resizeParentMax=0;resizeLast=0;collapsible=1;marginBottom=0;align=center;fontSize=14;strokeWidth=3;fillColor=#60a917;strokeColor=#2D7600;fontColor=#ffffff;" parent="WIyWlLk6GJQsqaUBKTNV-1" vertex="1">
                    <mxGeometry x="-560" y="1041" width="160" height="116" as="geometry"/>
                </mxCell>
                <mxCell id="7UvQwR4lHRqra6OR5dTo-159" value="Status" style="text;strokeColor=#696969;fillColor=none;spacingLeft=4;spacingRight=4;overflow=hidden;rotatable=0;points=[[0,0.5],[1,0.5]];portConstraint=eastwest;fontSize=12;fontColor=#000000;strokeWidth=3;" parent="7UvQwR4lHRqra6OR5dTo-158" vertex="1">
                    <mxGeometry y="26" width="160" height="30" as="geometry"/>
                </mxCell>
                <mxCell id="7UvQwR4lHRqra6OR5dTo-160" value="Question[]" style="text;strokeColor=#696969;fillColor=none;spacingLeft=4;spacingRight=4;overflow=hidden;rotatable=0;points=[[0,0.5],[1,0.5]];portConstraint=eastwest;fontSize=12;fontColor=#000000;strokeWidth=3;" parent="7UvQwR4lHRqra6OR5dTo-158" vertex="1">
                    <mxGeometry y="56" width="160" height="30" as="geometry"/>
                </mxCell>
                <mxCell id="7UvQwR4lHRqra6OR5dTo-161" value="Message" style="text;strokeColor=#696969;fillColor=none;spacingLeft=4;spacingRight=4;overflow=hidden;rotatable=0;points=[[0,0.5],[1,0.5]];portConstraint=eastwest;fontSize=12;fontColor=#000000;strokeWidth=3;" parent="7UvQwR4lHRqra6OR5dTo-158" vertex="1">
                    <mxGeometry y="86" width="160" height="30" as="geometry"/>
                </mxCell>
                <mxCell id="7UvQwR4lHRqra6OR5dTo-163" style="edgeStyle=entityRelationEdgeStyle;rounded=0;orthogonalLoop=1;jettySize=auto;html=1;fontSize=25;fontColor=#000000;strokeColor=#696969;strokeWidth=3;" parent="WIyWlLk6GJQsqaUBKTNV-1" source="7UvQwR4lHRqra6OR5dTo-149" target="7UvQwR4lHRqra6OR5dTo-158" edge="1">
                    <mxGeometry relative="1" as="geometry">
                        <mxPoint x="-390" y="1114" as="targetPoint"/>
                    </mxGeometry>
                </mxCell>
                <mxCell id="7UvQwR4lHRqra6OR5dTo-211" value="" style="edgeStyle=orthogonalEdgeStyle;rounded=0;orthogonalLoop=1;jettySize=auto;html=1;fontSize=25;entryX=0;entryY=0.5;entryDx=0;entryDy=0;fontColor=#000000;strokeColor=#696969;strokeWidth=3;" parent="WIyWlLk6GJQsqaUBKTNV-1" source="7UvQwR4lHRqra6OR5dTo-173" target="7UvQwR4lHRqra6OR5dTo-179" edge="1">
                    <mxGeometry relative="1" as="geometry">
                        <mxPoint x="-300" y="1508" as="targetPoint"/>
                    </mxGeometry>
                </mxCell>
                <mxCell id="7UvQwR4lHRqra6OR5dTo-173" value="Request" style="swimlane;fontStyle=0;childLayout=stackLayout;horizontal=1;startSize=26;horizontalStack=0;resizeParent=1;resizeParentMax=0;resizeLast=0;collapsible=1;marginBottom=0;align=center;fontSize=14;strokeWidth=3;fontColor=#FFFFFF;strokeColor=#696969;" parent="WIyWlLk6GJQsqaUBKTNV-1" vertex="1">
                    <mxGeometry x="-560" y="1450" width="160" height="116" as="geometry"/>
                </mxCell>
                <mxCell id="AqzM5bqXc-fwZ_wGa6BH-17" style="text;strokeColor=#696969;fillColor=none;spacingLeft=4;spacingRight=4;overflow=hidden;rotatable=0;points=[[0,0.5],[1,0.5]];portConstraint=eastwest;fontSize=12;fontColor=#000000;strokeWidth=3;" parent="7UvQwR4lHRqra6OR5dTo-173" vertex="1">
                    <mxGeometry y="26" width="160" height="30" as="geometry"/>
                </mxCell>
                <mxCell id="7UvQwR4lHRqra6OR5dTo-177" value="_____________________" style="text;strokeColor=#696969;fillColor=none;spacingLeft=4;spacingRight=4;overflow=hidden;rotatable=0;points=[[0,0.5],[1,0.5]];portConstraint=eastwest;fontSize=12;fontColor=#000000;strokeWidth=3;" parent="7UvQwR4lHRqra6OR5dTo-173" vertex="1">
                    <mxGeometry y="56" width="160" height="30" as="geometry"/>
                </mxCell>
                <mxCell id="7UvQwR4lHRqra6OR5dTo-178" value="Token" style="text;strokeColor=#696969;fillColor=none;spacingLeft=4;spacingRight=4;overflow=hidden;rotatable=0;points=[[0,0.5],[1,0.5]];portConstraint=eastwest;fontSize=12;fontColor=#000000;strokeWidth=3;" parent="7UvQwR4lHRqra6OR5dTo-173" vertex="1">
                    <mxGeometry y="86" width="160" height="30" as="geometry"/>
                </mxCell>
                <mxCell id="7UvQwR4lHRqra6OR5dTo-179" value="Input" style="swimlane;fontStyle=0;childLayout=stackLayout;horizontal=1;startSize=26;horizontalStack=0;resizeParent=1;resizeParentMax=0;resizeLast=0;collapsible=1;marginBottom=0;align=center;fontSize=14;strokeWidth=3;fontColor=#FFFFFF;strokeColor=#696969;" parent="WIyWlLk6GJQsqaUBKTNV-1" vertex="1">
                    <mxGeometry x="-276" y="1450" width="160" height="116" as="geometry"/>
                </mxCell>
                <mxCell id="AqzM5bqXc-fwZ_wGa6BH-16" style="text;strokeColor=#696969;fillColor=none;spacingLeft=4;spacingRight=4;overflow=hidden;rotatable=0;points=[[0,0.5],[1,0.5]];portConstraint=eastwest;fontSize=12;fontColor=#000000;strokeWidth=3;" parent="7UvQwR4lHRqra6OR5dTo-179" vertex="1">
                    <mxGeometry y="26" width="160" height="30" as="geometry"/>
                </mxCell>
                <mxCell id="7UvQwR4lHRqra6OR5dTo-183" value="______________________" style="text;strokeColor=#696969;fillColor=none;spacingLeft=4;spacingRight=4;overflow=hidden;rotatable=0;points=[[0,0.5],[1,0.5]];portConstraint=eastwest;fontSize=12;fontColor=#000000;strokeWidth=3;" parent="7UvQwR4lHRqra6OR5dTo-179" vertex="1">
                    <mxGeometry y="56" width="160" height="30" as="geometry"/>
                </mxCell>
                <mxCell id="7UvQwR4lHRqra6OR5dTo-184" value="Token" style="text;strokeColor=#696969;fillColor=none;spacingLeft=4;spacingRight=4;overflow=hidden;rotatable=0;points=[[0,0.5],[1,0.5]];portConstraint=eastwest;fontSize=12;fontColor=#000000;strokeWidth=3;" parent="7UvQwR4lHRqra6OR5dTo-179" vertex="1">
                    <mxGeometry y="86" width="160" height="30" as="geometry"/>
                </mxCell>
                <mxCell id="7UvQwR4lHRqra6OR5dTo-185" value="Output" style="swimlane;fontStyle=0;childLayout=stackLayout;horizontal=1;startSize=26;horizontalStack=0;resizeParent=1;resizeParentMax=0;resizeLast=0;collapsible=1;marginBottom=0;align=center;fontSize=14;strokeWidth=3;fontColor=#FFFFFF;strokeColor=#696969;" parent="WIyWlLk6GJQsqaUBKTNV-1" vertex="1">
                    <mxGeometry x="120" y="1465" width="160" height="86" as="geometry"/>
                </mxCell>
                <mxCell id="7UvQwR4lHRqra6OR5dTo-186" value="Guid" style="text;strokeColor=#696969;fillColor=none;spacingLeft=4;spacingRight=4;overflow=hidden;rotatable=0;points=[[0,0.5],[1,0.5]];portConstraint=eastwest;fontSize=12;fontColor=#000000;strokeWidth=3;" parent="7UvQwR4lHRqra6OR5dTo-185" vertex="1">
                    <mxGeometry y="26" width="160" height="30" as="geometry"/>
                </mxCell>
                <mxCell id="AqzM5bqXc-fwZ_wGa6BH-18" value="Role" style="text;strokeColor=#696969;fillColor=none;spacingLeft=4;spacingRight=4;overflow=hidden;rotatable=0;points=[[0,0.5],[1,0.5]];portConstraint=eastwest;fontSize=12;fontColor=#000000;strokeWidth=3;" parent="7UvQwR4lHRqra6OR5dTo-185" vertex="1">
                    <mxGeometry y="56" width="160" height="30" as="geometry"/>
                </mxCell>
                <mxCell id="7UvQwR4lHRqra6OR5dTo-216" style="edgeStyle=entityRelationEdgeStyle;rounded=0;orthogonalLoop=1;jettySize=auto;html=1;fontSize=25;endArrow=none;endFill=0;fontColor=#000000;strokeColor=#696969;strokeWidth=3;exitX=0.734;exitY=1.001;exitDx=0;exitDy=0;exitPerimeter=0;" parent="WIyWlLk6GJQsqaUBKTNV-1" source="7UvQwR4lHRqra6OR5dTo-195" target="7UvQwR4lHRqra6OR5dTo-201" edge="1">
                    <mxGeometry relative="1" as="geometry"/>
                </mxCell>
                <mxCell id="7UvQwR4lHRqra6OR5dTo-194" value="Input" style="swimlane;fontStyle=0;childLayout=stackLayout;horizontal=1;startSize=26;horizontalStack=0;resizeParent=1;resizeParentMax=0;resizeLast=0;collapsible=1;marginBottom=0;align=center;fontSize=14;strokeWidth=3;fontColor=#FFFFFF;strokeColor=#696969;" parent="WIyWlLk6GJQsqaUBKTNV-1" vertex="1">
                    <mxGeometry x="110" y="1676" width="160" height="56" as="geometry"/>
                </mxCell>
                <mxCell id="7UvQwR4lHRqra6OR5dTo-195" value="Question[]" style="text;strokeColor=#696969;fillColor=none;spacingLeft=4;spacingRight=4;overflow=hidden;rotatable=0;points=[[0,0.5],[1,0.5]];portConstraint=eastwest;fontSize=12;fontColor=#000000;strokeWidth=3;" parent="7UvQwR4lHRqra6OR5dTo-194" vertex="1">
                    <mxGeometry y="26" width="160" height="30" as="geometry"/>
                </mxCell>
                <mxCell id="7UvQwR4lHRqra6OR5dTo-218" style="edgeStyle=entityRelationEdgeStyle;rounded=0;orthogonalLoop=1;jettySize=auto;html=1;fontSize=25;fontColor=#000000;strokeColor=#696969;strokeWidth=3;" parent="WIyWlLk6GJQsqaUBKTNV-1" source="7UvQwR4lHRqra6OR5dTo-196" target="7UvQwR4lHRqra6OR5dTo-205" edge="1">
                    <mxGeometry relative="1" as="geometry"/>
                </mxCell>
                <mxCell id="7UvQwR4lHRqra6OR5dTo-196" value="Output" style="swimlane;fontStyle=0;childLayout=stackLayout;horizontal=1;startSize=26;horizontalStack=0;resizeParent=1;resizeParentMax=0;resizeLast=0;collapsible=1;marginBottom=0;align=center;fontSize=14;strokeWidth=3;fontColor=#FFFFFF;strokeColor=#696969;" parent="WIyWlLk6GJQsqaUBKTNV-1" vertex="1">
                    <mxGeometry x="-276" y="1703" width="160" height="116" as="geometry"/>
                </mxCell>
                <mxCell id="7UvQwR4lHRqra6OR5dTo-197" value="Status" style="text;strokeColor=#696969;fillColor=none;spacingLeft=4;spacingRight=4;overflow=hidden;rotatable=0;points=[[0,0.5],[1,0.5]];portConstraint=eastwest;fontSize=12;fontColor=#000000;strokeWidth=3;" parent="7UvQwR4lHRqra6OR5dTo-196" vertex="1">
                    <mxGeometry y="26" width="160" height="30" as="geometry"/>
                </mxCell>
                <mxCell id="7UvQwR4lHRqra6OR5dTo-198" value="Question[]" style="text;strokeColor=#696969;fillColor=none;spacingLeft=4;spacingRight=4;overflow=hidden;rotatable=0;points=[[0,0.5],[1,0.5]];portConstraint=eastwest;fontSize=12;fontColor=#000000;strokeWidth=3;" parent="7UvQwR4lHRqra6OR5dTo-196" vertex="1">
                    <mxGeometry y="56" width="160" height="30" as="geometry"/>
                </mxCell>
                <mxCell id="7UvQwR4lHRqra6OR5dTo-199" value="Message" style="text;strokeColor=#696969;fillColor=none;spacingLeft=4;spacingRight=4;overflow=hidden;rotatable=0;points=[[0,0.5],[1,0.5]];portConstraint=eastwest;fontSize=12;fontColor=#000000;strokeWidth=3;" parent="7UvQwR4lHRqra6OR5dTo-196" vertex="1">
                    <mxGeometry y="86" width="160" height="30" as="geometry"/>
                </mxCell>
                <mxCell id="7UvQwR4lHRqra6OR5dTo-201" value="QuestionModel" style="swimlane;fontStyle=0;childLayout=stackLayout;horizontal=1;startSize=26;horizontalStack=0;resizeParent=1;resizeParentMax=0;resizeLast=0;collapsible=1;marginBottom=0;align=center;fontSize=14;strokeWidth=3;fillColor=#60a917;strokeColor=#2D7600;fontColor=#ffffff;" parent="WIyWlLk6GJQsqaUBKTNV-1" vertex="1">
                    <mxGeometry x="-80" y="1830" width="160" height="146" as="geometry"/>
                </mxCell>
                <mxCell id="7UvQwR4lHRqra6OR5dTo-202" value="Id" style="text;strokeColor=#696969;fillColor=none;spacingLeft=4;spacingRight=4;overflow=hidden;rotatable=0;points=[[0,0.5],[1,0.5]];portConstraint=eastwest;fontSize=12;fontColor=#000000;strokeWidth=3;" parent="7UvQwR4lHRqra6OR5dTo-201" vertex="1">
                    <mxGeometry y="26" width="160" height="30" as="geometry"/>
                </mxCell>
                <mxCell id="AqzM5bqXc-fwZ_wGa6BH-28" value="Email" style="text;strokeColor=#696969;fillColor=none;spacingLeft=4;spacingRight=4;overflow=hidden;rotatable=0;points=[[0,0.5],[1,0.5]];portConstraint=eastwest;fontSize=12;fontColor=#000000;strokeWidth=3;" parent="7UvQwR4lHRqra6OR5dTo-201" vertex="1">
                    <mxGeometry y="56" width="160" height="30" as="geometry"/>
                </mxCell>
                <mxCell id="7UvQwR4lHRqra6OR5dTo-203" value="Text" style="text;strokeColor=#696969;fillColor=none;spacingLeft=4;spacingRight=4;overflow=hidden;rotatable=0;points=[[0,0.5],[1,0.5]];portConstraint=eastwest;fontSize=12;fontColor=#000000;strokeWidth=3;" parent="7UvQwR4lHRqra6OR5dTo-201" vertex="1">
                    <mxGeometry y="86" width="160" height="30" as="geometry"/>
                </mxCell>
                <mxCell id="7UvQwR4lHRqra6OR5dTo-204" value="Date" style="text;strokeColor=#696969;fillColor=none;spacingLeft=4;spacingRight=4;overflow=hidden;rotatable=0;points=[[0,0.5],[1,0.5]];portConstraint=eastwest;fontSize=12;fontColor=#000000;strokeWidth=3;" parent="7UvQwR4lHRqra6OR5dTo-201" vertex="1">
                    <mxGeometry y="116" width="160" height="30" as="geometry"/>
                </mxCell>
                <mxCell id="7UvQwR4lHRqra6OR5dTo-205" value="Output" style="swimlane;fontStyle=0;childLayout=stackLayout;horizontal=1;startSize=26;horizontalStack=0;resizeParent=1;resizeParentMax=0;resizeLast=0;collapsible=1;marginBottom=0;align=center;fontSize=14;strokeWidth=3;fillColor=#60a917;strokeColor=#2D7600;fontColor=#ffffff;" parent="WIyWlLk6GJQsqaUBKTNV-1" vertex="1">
                    <mxGeometry x="-546" y="1704" width="160" height="116" as="geometry"/>
                </mxCell>
                <mxCell id="7UvQwR4lHRqra6OR5dTo-206" value="Status" style="text;strokeColor=#696969;fillColor=none;spacingLeft=4;spacingRight=4;overflow=hidden;rotatable=0;points=[[0,0.5],[1,0.5]];portConstraint=eastwest;fontSize=12;fontColor=#000000;strokeWidth=3;" parent="7UvQwR4lHRqra6OR5dTo-205" vertex="1">
                    <mxGeometry y="26" width="160" height="30" as="geometry"/>
                </mxCell>
                <mxCell id="7UvQwR4lHRqra6OR5dTo-207" value="Question[]" style="text;strokeColor=#696969;fillColor=none;spacingLeft=4;spacingRight=4;overflow=hidden;rotatable=0;points=[[0,0.5],[1,0.5]];portConstraint=eastwest;fontSize=12;fontColor=#000000;strokeWidth=3;" parent="7UvQwR4lHRqra6OR5dTo-205" vertex="1">
                    <mxGeometry y="56" width="160" height="30" as="geometry"/>
                </mxCell>
                <mxCell id="7UvQwR4lHRqra6OR5dTo-208" value="Message" style="text;strokeColor=#696969;fillColor=none;spacingLeft=4;spacingRight=4;overflow=hidden;rotatable=0;points=[[0,0.5],[1,0.5]];portConstraint=eastwest;fontSize=12;fontColor=#000000;strokeWidth=3;" parent="7UvQwR4lHRqra6OR5dTo-205" vertex="1">
                    <mxGeometry y="86" width="160" height="30" as="geometry"/>
                </mxCell>
                <mxCell id="7UvQwR4lHRqra6OR5dTo-213" style="rounded=0;orthogonalLoop=1;jettySize=auto;html=1;fontSize=25;fontColor=#000000;strokeWidth=3;edgeStyle=entityRelationEdgeStyle;exitX=1;exitY=0.5;exitDx=0;exitDy=0;strokeColor=#696969;" parent="WIyWlLk6GJQsqaUBKTNV-1" source="7UvQwR4lHRqra6OR5dTo-186" target="7UvQwR4lHRqra6OR5dTo-189" edge="1">
                    <mxGeometry relative="1" as="geometry">
                        <mxPoint x="414" y="1607" as="targetPoint"/>
                        <mxPoint x="310" y="1671" as="sourcePoint"/>
                    </mxGeometry>
                </mxCell>
                <mxCell id="7UvQwR4lHRqra6OR5dTo-214" style="edgeStyle=elbowEdgeStyle;rounded=0;orthogonalLoop=1;jettySize=auto;html=1;fontSize=25;fontColor=#000000;strokeColor=#696969;strokeWidth=3;" parent="WIyWlLk6GJQsqaUBKTNV-1" source="7UvQwR4lHRqra6OR5dTo-179" target="7UvQwR4lHRqra6OR5dTo-185" edge="1">
                    <mxGeometry relative="1" as="geometry">
                        <mxPoint x="400" y="1521" as="targetPoint"/>
                        <Array as="points">
                            <mxPoint x="20" y="1520"/>
                            <mxPoint x="210" y="1590"/>
                            <mxPoint x="40" y="1650"/>
                            <mxPoint x="-60" y="1530"/>
                            <mxPoint x="-20" y="1520"/>
                        </Array>
                    </mxGeometry>
                </mxCell>
                <mxCell id="7UvQwR4lHRqra6OR5dTo-217" style="edgeStyle=entityRelationEdgeStyle;rounded=0;orthogonalLoop=1;jettySize=auto;html=1;entryX=1;entryY=0.5;entryDx=0;entryDy=0;fontSize=25;fontColor=#000000;strokeColor=#696969;strokeWidth=3;" parent="WIyWlLk6GJQsqaUBKTNV-1" source="7UvQwR4lHRqra6OR5dTo-194" target="7UvQwR4lHRqra6OR5dTo-198" edge="1">
                    <mxGeometry relative="1" as="geometry"/>
                </mxCell>
                <mxCell id="7UvQwR4lHRqra6OR5dTo-189" value="Questions User&#10;(DbQuestionModel)" style="swimlane;fontStyle=0;childLayout=stackLayout;horizontal=1;startSize=40;horizontalStack=0;resizeParent=1;resizeParentMax=0;resizeLast=0;collapsible=1;marginBottom=0;align=center;fontSize=14;strokeWidth=3;fillColor=#60a917;strokeColor=#2D7600;fontColor=#ffffff;" parent="WIyWlLk6GJQsqaUBKTNV-1" vertex="1">
                    <mxGeometry x="400" y="1634" width="160" height="140" as="geometry"/>
                </mxCell>
                <mxCell id="7UvQwR4lHRqra6OR5dTo-190" value="Id" style="text;strokeColor=#696969;fillColor=none;spacingLeft=4;spacingRight=4;overflow=hidden;rotatable=0;points=[[0,0.5],[1,0.5]];portConstraint=eastwest;fontSize=12;fontStyle=1;fontColor=#000000;strokeWidth=3;" parent="7UvQwR4lHRqra6OR5dTo-189" vertex="1">
                    <mxGeometry y="40" width="160" height="30" as="geometry"/>
                </mxCell>
                <mxCell id="17" value="JOIN USER" style="swimlane;fontStyle=0;childLayout=stackLayout;horizontal=1;startSize=40;horizontalStack=0;resizeParent=1;resizeParentMax=0;resizeLast=0;collapsible=1;marginBottom=0;align=center;fontSize=14;strokeWidth=3;fillColor=#60a917;strokeColor=#2D7600;fontColor=#ffffff;" vertex="1" parent="7UvQwR4lHRqra6OR5dTo-189">
                    <mxGeometry y="70" width="160" height="70" as="geometry"/>
                </mxCell>
                <mxCell id="18" value="Guid" style="text;strokeColor=#696969;fillColor=none;spacingLeft=4;spacingRight=4;overflow=hidden;rotatable=0;points=[[0,0.5],[1,0.5]];portConstraint=eastwest;fontSize=12;fontStyle=1;fontColor=#000000;strokeWidth=3;" vertex="1" parent="17">
                    <mxGeometry y="40" width="160" height="30" as="geometry"/>
                </mxCell>
                <mxCell id="AqzM5bqXc-fwZ_wGa6BH-13" value="" style="endArrow=classic;html=1;rounded=0;edgeStyle=entityRelationEdgeStyle;fontColor=#000000;strokeWidth=3;strokeColor=#696969;entryX=1;entryY=0.063;entryDx=0;entryDy=0;entryPerimeter=0;" parent="WIyWlLk6GJQsqaUBKTNV-1" source="7UvQwR4lHRqra6OR5dTo-189" target="7UvQwR4lHRqra6OR5dTo-195" edge="1">
                    <mxGeometry width="50" height="50" relative="1" as="geometry">
                        <mxPoint x="40" y="1720" as="sourcePoint"/>
                        <mxPoint x="270" y="1704" as="targetPoint"/>
                    </mxGeometry>
                </mxCell>
                <mxCell id="AqzM5bqXc-fwZ_wGa6BH-26" style="edgeStyle=entityRelationEdgeStyle;rounded=0;orthogonalLoop=1;jettySize=auto;html=1;fontColor=#000000;strokeColor=#696969;strokeWidth=3;" parent="WIyWlLk6GJQsqaUBKTNV-1" source="AqzM5bqXc-fwZ_wGa6BH-19" target="AqzM5bqXc-fwZ_wGa6BH-35" edge="1">
                    <mxGeometry relative="1" as="geometry"/>
                </mxCell>
                <mxCell id="AqzM5bqXc-fwZ_wGa6BH-19" value="Users&#10;(DbAccountModel)" style="swimlane;fontStyle=0;childLayout=stackLayout;horizontal=1;startSize=40;horizontalStack=0;resizeParent=1;resizeParentMax=0;resizeLast=0;collapsible=1;marginBottom=0;align=center;fontSize=14;strokeWidth=3;fillColor=#60a917;strokeColor=#2D7600;fontColor=#ffffff;" parent="WIyWlLk6GJQsqaUBKTNV-1" vertex="1">
                    <mxGeometry x="414" y="776" width="160" height="70" as="geometry"/>
                </mxCell>
                <mxCell id="AqzM5bqXc-fwZ_wGa6BH-20" value="Guid" style="text;strokeColor=#696969;fillColor=none;spacingLeft=4;spacingRight=4;overflow=hidden;rotatable=0;points=[[0,0.5],[1,0.5]];portConstraint=eastwest;fontSize=12;fontStyle=1;fontColor=#000000;strokeWidth=3;" parent="AqzM5bqXc-fwZ_wGa6BH-19" vertex="1">
                    <mxGeometry y="40" width="160" height="30" as="geometry"/>
                </mxCell>
                <mxCell id="AqzM5bqXc-fwZ_wGa6BH-25" style="edgeStyle=orthogonalEdgeStyle;rounded=0;orthogonalLoop=1;jettySize=auto;html=1;fontColor=#000000;strokeColor=#696969;strokeWidth=3;" parent="WIyWlLk6GJQsqaUBKTNV-1" source="7UvQwR4lHRqra6OR5dTo-116" target="AqzM5bqXc-fwZ_wGa6BH-20" edge="1">
                    <mxGeometry relative="1" as="geometry">
                        <mxPoint x="414" y="841" as="targetPoint"/>
                        <Array as="points">
                            <mxPoint x="-30" y="921"/>
                            <mxPoint x="-30" y="841"/>
                            <mxPoint x="494" y="841"/>
                        </Array>
                    </mxGeometry>
                </mxCell>
                <mxCell id="AqzM5bqXc-fwZ_wGa6BH-30" style="edgeStyle=entityRelationEdgeStyle;rounded=0;orthogonalLoop=1;jettySize=auto;html=1;endArrow=classic;endFill=1;fontColor=#000000;strokeColor=#696969;strokeWidth=3;" parent="WIyWlLk6GJQsqaUBKTNV-1" source="7UvQwR4lHRqra6OR5dTo-107" target="7UvQwR4lHRqra6OR5dTo-111" edge="1">
                    <mxGeometry relative="1" as="geometry"/>
                </mxCell>
                <mxCell id="AqzM5bqXc-fwZ_wGa6BH-33" value="User" style="swimlane;fontStyle=0;childLayout=stackLayout;horizontal=1;startSize=26;horizontalStack=0;resizeParent=1;resizeParentMax=0;resizeLast=0;collapsible=1;marginBottom=0;align=center;fontSize=14;strokeWidth=3;fontColor=#FFFFFF;strokeColor=#696969;" parent="WIyWlLk6GJQsqaUBKTNV-1" vertex="1">
                    <mxGeometry x="140" y="770" width="160" height="56" as="geometry"/>
                </mxCell>
                <mxCell id="AqzM5bqXc-fwZ_wGa6BH-35" value="User" style="text;strokeColor=#696969;fillColor=none;spacingLeft=4;spacingRight=4;overflow=hidden;rotatable=0;points=[[0,0.5],[1,0.5]];portConstraint=eastwest;fontSize=12;fontColor=#000000;strokeWidth=3;" parent="AqzM5bqXc-fwZ_wGa6BH-33" vertex="1">
                    <mxGeometry y="26" width="160" height="30" as="geometry"/>
                </mxCell>
                <mxCell id="AqzM5bqXc-fwZ_wGa6BH-46" style="edgeStyle=orthogonalEdgeStyle;rounded=0;orthogonalLoop=1;jettySize=auto;html=1;entryX=0;entryY=0.5;entryDx=0;entryDy=0;endArrow=classic;endFill=1;fontColor=#000000;strokeColor=#696969;strokeWidth=3;" parent="WIyWlLk6GJQsqaUBKTNV-1" source="AqzM5bqXc-fwZ_wGa6BH-35" target="7UvQwR4lHRqra6OR5dTo-110" edge="1">
                    <mxGeometry relative="1" as="geometry">
                        <Array as="points">
                            <mxPoint x="90" y="811"/>
                            <mxPoint x="90" y="991"/>
                        </Array>
                    </mxGeometry>
                </mxCell>
                <mxCell id="8" value="Questions Admin&#10;(DbQuestionModel)" style="swimlane;fontStyle=0;childLayout=stackLayout;horizontal=1;startSize=40;horizontalStack=0;resizeParent=1;resizeParentMax=0;resizeLast=0;collapsible=1;marginBottom=0;align=center;fontSize=14;strokeWidth=3;fillColor=#60a917;strokeColor=#2D7600;fontColor=#ffffff;" parent="WIyWlLk6GJQsqaUBKTNV-1" vertex="1">
                    <mxGeometry x="390" y="1456" width="160" height="140" as="geometry"/>
                </mxCell>
                <mxCell id="9" value="Id" style="text;strokeColor=#696969;fillColor=none;spacingLeft=4;spacingRight=4;overflow=hidden;rotatable=0;points=[[0,0.5],[1,0.5]];portConstraint=eastwest;fontSize=12;fontStyle=1;fontColor=#000000;strokeWidth=3;" parent="8" vertex="1">
                    <mxGeometry y="40" width="160" height="30" as="geometry"/>
                </mxCell>
                <mxCell id="20" value="JOIN USER" style="swimlane;fontStyle=0;childLayout=stackLayout;horizontal=1;startSize=40;horizontalStack=0;resizeParent=1;resizeParentMax=0;resizeLast=0;collapsible=1;marginBottom=0;align=center;fontSize=14;strokeWidth=3;fillColor=#60a917;strokeColor=#2D7600;fontColor=#ffffff;" vertex="1" parent="8">
                    <mxGeometry y="70" width="160" height="70" as="geometry"/>
                </mxCell>
                <mxCell id="21" value="Guid" style="text;strokeColor=#696969;fillColor=none;spacingLeft=4;spacingRight=4;overflow=hidden;rotatable=0;points=[[0,0.5],[1,0.5]];portConstraint=eastwest;fontSize=12;fontStyle=1;fontColor=#000000;strokeWidth=3;" vertex="1" parent="20">
                    <mxGeometry y="40" width="160" height="30" as="geometry"/>
                </mxCell>
            </root>
        </mxGraphModel>
    </diagram>
</mxfile>